<?xml version="1.0" encoding="utf-8"?>
<svg width="741px" height="490px" viewBox="0 0 741 490" version="1.1" xmlns="http://www.w3.org/2000/svg">
  <title>hero</title>
  <defs>
    <path d="M62.2595454,1.73953123 L6.65650032,33.9332 C2.19881467,36.4883042 -0.386202376,41.4740305 0.0470817298,46.6818927 L0.0470817298,46.6818927 L0.0470817298,68.1443388 C-0.33059933,73.4187348 2.35618178,78.42807 6.90828768,80.9359566 L6.90828768,80.9359566 L62.511333,112.05543 C66.4581,114.286451 71.2494036,114.286451 75.1951218,112.05543 L75.1951218,112.05543 L129.749053,80.9359566 C134.231917,78.3776328 136.844211,73.3790292 136.43191,68.1443388 L136.43191,68.1443388 L136.43191,46.6818927 C136.820082,41.4976391 134.244506,36.5505453 129.822491,33.9868561 L129.822491,33.9868561 L75.2685594,1.79318735 C73.2427206,0.597729114 70.9797816,0 68.717892,0 L68.717892,0 C66.4906224,0 64.2633534,0.579486037 62.2595454,1.73953123 L62.2595454,1.73953123 Z M66.6658242,81.5583678 L11.0627794,49.3646984 C10.3724623,48.9740819 9.8038425,48.3924496 9.4230141,47.6863354 L9.4230141,47.6863354 C8.30046204,45.61199 9.03484188,43.0010835 11.0627794,41.8528426 L11.0627794,41.8528426 L66.6658242,9.6591738 C67.964628,8.89296444 69.5634774,8.89296444 70.8622806,9.6591738 L70.8622806,9.6591738 L125.416212,41.9279609 C127.423167,43.1137612 128.111386,45.7386184 126.953164,47.7925746 L126.953164,47.7925746 C125.794942,49.8465304 123.22776,50.5504987 121.219756,49.3646984 L121.219756,49.3646984 L68.7430704,18.3621956 L21.6798136,45.6087706 L70.799334,74.0465112 C72.8272716,75.2140686 73.5459144,77.8421448 72.4044786,79.9154172 L72.4044786,79.9154172 C71.6302326,81.3233538 70.2013386,82.114245 68.7294318,82.114245 L68.7294318,82.114245 C68.0296728,82.114245 67.3194228,81.93396 66.6658242,81.5583678 L66.6658242,81.5583678 Z M66.749754,104.093935 L11.1467085,72.973389 C10.9872431,72.8971974 10.8309251,72.8102742 10.6830001,72.7136934 L10.6830001,72.7136934 C8.72535324,71.44419 8.14414404,68.7914316 9.38524596,66.7889856 L9.38524596,66.7889856 C10.6242497,64.7876124 13.2187088,64.192029 15.1753064,65.461533 L15.1753064,65.461533 L68.7430704,95.4338388 L121.272211,65.461533 C123.300149,64.30578 125.859987,65.050527 126.989883,67.1248728 L126.989883,67.1248728 C128.119779,69.2002914 127.391693,71.8176366 125.363756,72.973389 L125.363756,72.973389 L70.809825,104.093935 C70.1782584,104.451286 69.4784994,104.629423 68.7797892,104.629423 L68.7797892,104.629423 C68.0800302,104.629423 67.3813206,104.451286 66.749754,104.093935 L66.749754,104.093935 Z" id="path-1"/>
  </defs>
  <g id="Page-1" stroke="none" stroke-width="1" fill="none" fill-rule="evenodd" transform="matrix(1, 0, 0, 1, 0.568733, 0.025983)">
    <g id="browser" transform="translate(1.000000, 1.000000)">
      <rect id="Rectangle" stroke="#207BEA" stroke-width="1.909" fill="#FFFFFF" fill-rule="nonzero" x="0" y="0" width="738.108" height="487.83" rx="5.727"/>
      <path d="M0,31.815 L0,7.62 C0,3.412 2.954,0 6.57,0 L731.23,0 C734.858,0 737.8,3.405 737.8,7.62 L737.8,31.815 L0,31.815 Z" id="Path" fill="#207BEA" fill-rule="nonzero"/>
      <g id="dots" transform="translate(8.664000, 10.211000)" fill="#FFFFFF" fill-rule="nonzero">
        <circle id="Oval" cx="4.772" cy="4.772" r="4.772"/>
        <circle id="Oval" cx="19.619" cy="4.772" r="4.772"/>
        <circle id="Oval" cx="33.406" cy="4.772" r="4.772"/>
      </g>
      <g id="stackbit-monogram" transform="translate(301.000000, 187.000000)">
        <g id="path-1"/>
      </g>
    </g>
  </g>
  <g id="svgg" transform="matrix(0.688337, 0, 0, 0.688337, 242.575714, 99.71106)" style="">
    <path id="path0" d="M304.000 97.115 C 304.000 97.729,300.799 115.377,296.886 136.335 C 292.973 157.292,290.190 174.857,290.702 175.369 C 291.214 175.880,300.677 158.907,311.732 137.649 L 331.832 99.000 323.416 97.648 C 312.673 95.923,304.000 95.685,304.000 97.115 M111.500 118.160 C 98.575 126.918,87.933 132.939,87.852 131.541 C 87.770 130.144,86.150 125.484,84.252 121.186 L 80.802 113.372 73.767 123.186 C 69.898 128.584,62.416 139.153,57.141 146.674 L 47.550 160.348 40.805 153.811 C 32.440 145.703,33.492 144.260,26.082 174.015 C 22.660 187.757,19.481 200.096,19.018 201.435 C 18.375 203.293,16.514 203.175,11.152 200.935 C -1.649 195.586,-2.065 197.028,4.069 225.500 L 6.331 236.000 53.474 236.000 L 100.616 236.000 107.509 227.948 C 124.613 207.965,148.174 207.262,166.506 226.186 L 176.013 236.000 199.006 236.000 L 222.000 236.000 222.000 218.000 L 222.000 200.000 243.358 200.000 C 262.229 200.000,278.000 197.311,278.000 194.094 C 278.000 193.488,267.650 186.362,255.000 178.259 C 228.628 161.365,229.903 163.317,239.088 153.910 L 246.176 146.651 220.588 141.080 C 187.923 133.968,189.352 134.880,194.141 124.182 C 196.303 119.354,197.698 115.031,197.241 114.575 C 196.536 113.869,158.395 120.024,144.500 123.085 C 140.257 124.020,140.000 123.445,140.000 113.038 C 140.000 98.853,139.994 98.854,111.500 118.160 M319.000 164.984 C 296.591 185.746,296.924 185.997,331.619 174.496 C 362.824 164.151,362.892 164.101,353.327 158.458 C 349.657 156.293,344.482 153.123,341.827 151.415 C 337.108 148.378,336.597 148.682,319.000 164.984 M226.000 210.196 L 226.000 216.393 238.500 215.031 C 253.607 213.386,275.204 208.674,279.715 206.040 C 281.924 204.750,273.664 204.102,254.500 204.061 L 226.000 204.000 226.000 210.196 M284.636 210.175 C 271.317 215.513,241.750 222.000,230.738 222.000 C 226.656 222.000,226.000 222.970,226.000 229.000 L 226.000 236.000 244.167 236.000 C 275.109 236.000,332.000 216.265,332.000 205.532 C 332.000 201.269,298.715 204.532,284.636 210.175 M335.000 211.114 C 330.600 214.944,319.829 221.706,311.065 226.141 C 302.300 230.575,294.725 234.608,294.231 235.102 C 293.737 235.596,305.111 236.000,319.505 236.000 L 345.678 236.000 356.858 225.782 C 363.007 220.162,369.891 212.962,372.155 209.782 L 376.272 204.000 359.636 204.075 C 343.551 204.148,342.735 204.381,335.000 211.114 M382.000 205.757 C 382.000 206.723,376.066 213.923,368.813 221.757 L 355.625 236.000 377.813 236.000 L 400.000 236.000 400.000 220.000 L 400.000 204.000 391.000 204.000 C 386.050 204.000,382.000 204.790,382.000 205.757 M0.000 245.000 L 0.000 252.000 200.000 252.000 L 400.000 252.000 400.000 245.000 L 400.000 238.000 200.000 238.000 L 0.000 238.000 0.000 245.000 M0.000 280.000 L 0.000 304.000 200.000 304.000 L 400.000 304.000 400.000 280.000 L 400.000 256.000 200.000 256.000 L 0.000 256.000 0.000 280.000 " stroke="none" fill-rule="evenodd" style="fill: rgb(22, 142, 246);"/>
  </g>
</svg>